<svg id="visual" viewBox="0 0 900 600" width="900" height="600" xmlns="http://www.w3.org/2000/svg" xmlns:xlink="http://www.w3.org/1999/xlink" version="1.1"><rect x="0" y="0" width="900" height="600" fill="#ffffff"></rect><defs><linearGradient id="grad1_0" x1="33.3%" y1="0%" x2="100%" y2="100%"><stop offset="20%" stop-color="#679c9c" stop-opacity="1"></stop><stop offset="80%" stop-color="#679c9c" stop-opacity="1"></stop></linearGradient></defs><defs><linearGradient id="grad1_1" x1="33.3%" y1="0%" x2="100%" y2="100%"><stop offset="20%" stop-color="#679c9c" stop-opacity="1"></stop><stop offset="80%" stop-color="#86afaf" stop-opacity="1"></stop></linearGradient></defs><defs><linearGradient id="grad1_2" x1="33.3%" y1="0%" x2="100%" y2="100%"><stop offset="20%" stop-color="#a4c3c3" stop-opacity="1"></stop><stop offset="80%" stop-color="#86afaf" stop-opacity="1"></stop></linearGradient></defs><defs><linearGradient id="grad1_3" x1="33.3%" y1="0%" x2="100%" y2="100%"><stop offset="20%" stop-color="#a4c3c3" stop-opacity="1"></stop><stop offset="80%" stop-color="#c2d7d6" stop-opacity="1"></stop></linearGradient></defs><defs><linearGradient id="grad1_4" x1="33.3%" y1="0%" x2="100%" y2="100%"><stop offset="20%" stop-color="#e0ebea" stop-opacity="1"></stop><stop offset="80%" stop-color="#c2d7d6" stop-opacity="1"></stop></linearGradient></defs><defs><linearGradient id="grad1_5" x1="33.3%" y1="0%" x2="100%" y2="100%"><stop offset="20%" stop-color="#e0ebea" stop-opacity="1"></stop><stop offset="80%" stop-color="#ffffff" stop-opacity="1"></stop></linearGradient></defs><defs><linearGradient id="grad2_0" x1="0%" y1="0%" x2="66.7%" y2="100%"><stop offset="20%" stop-color="#679c9c" stop-opacity="1"></stop><stop offset="80%" stop-color="#679c9c" stop-opacity="1"></stop></linearGradient></defs><defs><linearGradient id="grad2_1" x1="0%" y1="0%" x2="66.7%" y2="100%"><stop offset="20%" stop-color="#86afaf" stop-opacity="1"></stop><stop offset="80%" stop-color="#679c9c" stop-opacity="1"></stop></linearGradient></defs><defs><linearGradient id="grad2_2" x1="0%" y1="0%" x2="66.7%" y2="100%"><stop offset="20%" stop-color="#86afaf" stop-opacity="1"></stop><stop offset="80%" stop-color="#a4c3c3" stop-opacity="1"></stop></linearGradient></defs><defs><linearGradient id="grad2_3" x1="0%" y1="0%" x2="66.7%" y2="100%"><stop offset="20%" stop-color="#c2d7d6" stop-opacity="1"></stop><stop offset="80%" stop-color="#a4c3c3" stop-opacity="1"></stop></linearGradient></defs><defs><linearGradient id="grad2_4" x1="0%" y1="0%" x2="66.7%" y2="100%"><stop offset="20%" stop-color="#c2d7d6" stop-opacity="1"></stop><stop offset="80%" stop-color="#e0ebea" stop-opacity="1"></stop></linearGradient></defs><defs><linearGradient id="grad2_5" x1="0%" y1="0%" x2="66.7%" y2="100%"><stop offset="20%" stop-color="#ffffff" stop-opacity="1"></stop><stop offset="80%" stop-color="#e0ebea" stop-opacity="1"></stop></linearGradient></defs><g transform="translate(900, 0)"><path d="M0 513.8C-23.3 518.7 -46.5 523.7 -59.8 492.4C-73 461.1 -76.3 393.6 -97.2 394.2C-118.1 394.8 -156.6 463.6 -182.2 480.4C-207.8 497.2 -220.4 462 -221.2 421.5C-222 381 -210.9 335.2 -220.4 319.3C-229.9 303.5 -259.8 317.6 -281.2 317.4C-302.5 317.1 -315.2 302.4 -324.9 287.8C-334.5 273.2 -341.2 258.6 -360.5 248.8C-379.7 239 -411.5 234.1 -400.2 210.1C-388.9 186 -334.5 143 -316 119.9C-297.6 96.8 -315.1 93.7 -359.2 88.5C-403.4 83.4 -474.1 76.3 -504.3 61.2C-534.5 46.1 -524.1 23.1 -513.8 0L0 0Z" fill="#f0f5f5"></path><path d="M0 428.2C-19.4 432.3 -38.8 436.4 -49.8 410.3C-60.9 384.2 -63.6 328 -81 328.5C-98.4 329 -130.5 386.3 -151.8 400.3C-173.2 414.3 -183.7 385 -184.3 351.2C-185 317.5 -175.8 279.3 -183.7 266.1C-191.6 252.9 -216.5 264.7 -234.3 264.5C-252.1 264.3 -262.6 252 -270.7 239.8C-278.8 227.6 -284.3 215.5 -300.4 207.3C-316.4 199.2 -342.9 195.1 -333.5 175C-324.1 155 -278.7 119.1 -263.4 99.9C-248 80.6 -262.6 78 -299.4 73.8C-336.1 69.5 -395.1 63.6 -420.2 51C-445.4 38.5 -436.8 19.2 -428.2 0L0 0Z" fill="#d1e1e0"></path><path d="M0 342.5C-15.5 345.8 -31 349.1 -39.9 328.3C-48.7 307.4 -50.8 262.4 -64.8 262.8C-78.7 263.2 -104.4 309.1 -121.5 320.3C-138.5 331.5 -146.9 308 -147.5 281C-148 254 -140.6 223.4 -146.9 212.9C-153.2 202.3 -173.2 211.8 -187.4 211.6C-201.7 211.4 -210.1 201.6 -216.6 191.9C-223 182.1 -227.5 172.4 -240.3 165.9C-253.1 159.4 -274.4 156.1 -266.8 140C-259.3 124 -223 95.3 -210.7 79.9C-198.4 64.5 -210.1 62.4 -239.5 59C-268.9 55.6 -316.1 50.9 -336.2 40.8C-356.3 30.8 -349.4 15.4 -342.5 0L0 0Z" fill="#b3cdcc"></path><path d="M0 256.9C-11.6 259.4 -23.3 261.8 -29.9 246.2C-36.5 230.5 -38.1 196.8 -48.6 197.1C-59 197.4 -78.3 231.8 -91.1 240.2C-103.9 248.6 -110.2 231 -110.6 210.7C-111 190.5 -105.5 167.6 -110.2 159.7C-114.9 151.7 -129.9 158.8 -140.6 158.7C-151.2 158.6 -157.6 151.2 -162.4 143.9C-167.3 136.6 -170.6 129.3 -180.2 124.4C-189.9 119.5 -205.8 117 -200.1 105C-194.5 93 -167.2 71.5 -158 59.9C-148.8 48.4 -157.6 46.8 -179.6 44.3C-201.7 41.7 -237.1 38.2 -252.1 30.6C-267.2 23.1 -262.1 11.5 -256.9 0L0 0Z" fill="#95b9b9"></path><path d="M0 171.3C-7.8 172.9 -15.5 174.6 -19.9 164.1C-24.3 153.7 -25.4 131.2 -32.4 131.4C-39.4 131.6 -52.2 154.5 -60.7 160.1C-69.3 165.7 -73.5 154 -73.7 140.5C-74 127 -70.3 111.7 -73.5 106.4C-76.6 101.2 -86.6 105.9 -93.7 105.8C-100.8 105.7 -105.1 100.8 -108.3 95.9C-111.5 91.1 -113.7 86.2 -120.2 82.9C-126.6 79.7 -137.2 78 -133.4 70C-129.6 62 -111.5 47.7 -105.3 40C-99.2 32.3 -105 31.2 -119.7 29.5C-134.5 27.8 -158 25.4 -168.1 20.4C-178.2 15.4 -174.7 7.7 -171.3 0L0 0Z" fill="#76a6a5"></path><path d="M0 85.6C-3.9 86.5 -7.8 87.3 -10 82.1C-12.2 76.8 -12.7 65.6 -16.2 65.7C-19.7 65.8 -26.1 77.3 -30.4 80.1C-34.6 82.9 -36.7 77 -36.9 70.2C-37 63.5 -35.2 55.9 -36.7 53.2C-38.3 50.6 -43.3 52.9 -46.9 52.9C-50.4 52.9 -52.5 50.4 -54.1 48C-55.8 45.5 -56.9 43.1 -60.1 41.5C-63.3 39.8 -68.6 39 -66.7 35C-64.8 31 -55.7 23.8 -52.7 20C-49.6 16.1 -52.5 15.6 -59.9 14.8C-67.2 13.9 -79 12.7 -84 10.2C-89.1 7.7 -87.4 3.8 -85.6 0L0 0Z" fill="#679c9c"></path></g><g transform="translate(0, 600)"><path d="M0 -513.8C20.9 -494.5 41.8 -475.2 52.8 -434.8C63.8 -394.4 64.7 -332.8 81.1 -329.1C97.5 -325.5 129.3 -379.9 148.2 -390.8C167.2 -401.7 173.3 -369.1 184.5 -351.5C195.6 -333.9 211.8 -331.4 222.1 -321.8C232.4 -312.2 236.9 -295.5 265.9 -300.2C294.9 -304.8 348.3 -330.8 359.3 -318.3C370.3 -305.8 338.8 -255 321 -221.5C303.1 -188.1 298.8 -172.1 304.6 -159.9C310.4 -147.7 326.4 -139.3 344.1 -130.5C361.8 -121.7 381.3 -112.6 413.6 -101.9C446 -91.3 491.2 -79.2 510 -61.9C528.9 -44.7 521.3 -22.3 513.8 0L0 0Z" fill="#f0f5f5"></path><path d="M0 -428.2C17.4 -412.1 34.9 -396 44 -362.3C53.1 -328.6 54 -277.3 67.6 -274.3C81.3 -271.3 107.7 -316.6 123.5 -325.7C139.3 -334.8 144.5 -307.6 153.7 -292.9C163 -278.3 176.5 -276.2 185.1 -268.2C193.7 -260.1 197.5 -246.3 221.6 -250.1C245.7 -254 290.2 -275.6 299.4 -265.2C308.6 -254.9 282.4 -212.5 267.5 -184.6C252.6 -156.8 249 -143.4 253.8 -133.2C258.7 -123 272 -116.1 286.7 -108.7C301.5 -101.4 317.7 -93.8 344.7 -85C371.6 -76.1 409.3 -66 425 -51.6C440.7 -37.2 434.4 -18.6 428.2 0L0 0Z" fill="#d1e1e0"></path><path d="M0 -342.5C13.9 -329.7 27.9 -316.8 35.2 -289.9C42.5 -262.9 43.2 -221.8 54.1 -219.4C65 -217 86.2 -253.3 98.8 -260.6C111.5 -267.8 115.6 -246.1 123 -234.4C130.4 -222.6 141.2 -220.9 148.1 -214.5C155 -208.1 158 -197 177.3 -200.1C196.6 -203.2 232.2 -220.5 239.5 -212.2C246.9 -203.9 225.9 -170 214 -147.7C202.1 -125.4 199.2 -114.7 203.1 -106.6C206.9 -98.4 217.6 -92.8 229.4 -87C241.2 -81.2 254.2 -75.1 275.7 -68C297.3 -60.9 327.5 -52.8 340 -41.3C352.6 -29.8 347.6 -14.9 342.5 0L0 0Z" fill="#b3cdcc"></path><path d="M0 -256.9C10.5 -247.3 20.9 -237.6 26.4 -217.4C31.9 -197.2 32.4 -166.4 40.6 -164.6C48.8 -162.8 64.6 -190 74.1 -195.4C83.6 -200.9 86.7 -184.6 92.2 -175.8C97.8 -167 105.9 -165.7 111.1 -160.9C116.2 -156.1 118.5 -147.8 133 -150.1C147.4 -152.4 174.1 -165.4 179.6 -159.1C185.1 -152.9 169.4 -127.5 160.5 -110.8C151.5 -94.1 149.4 -86 152.3 -79.9C155.2 -73.8 163.2 -69.6 172 -65.2C180.9 -60.9 190.6 -56.3 206.8 -51C223 -45.7 245.6 -39.6 255 -31C264.4 -22.3 260.7 -11.2 256.9 0L0 0Z" fill="#95b9b9"></path><path d="M0 -171.3C7 -164.8 13.9 -158.4 17.6 -144.9C21.3 -131.5 21.6 -110.9 27 -109.7C32.5 -108.5 43.1 -126.6 49.4 -130.3C55.7 -133.9 57.8 -123 61.5 -117.2C65.2 -111.3 70.6 -110.5 74 -107.3C77.5 -104.1 79 -98.5 88.6 -100.1C98.3 -101.6 116.1 -110.3 119.8 -106.1C123.4 -101.9 112.9 -85 107 -73.8C101 -62.7 99.6 -57.4 101.5 -53.3C103.5 -49.2 108.8 -46.4 114.7 -43.5C120.6 -40.6 127.1 -37.5 137.9 -34C148.7 -30.4 163.7 -26.4 170 -20.6C176.3 -14.9 173.8 -7.4 171.3 0L0 0Z" fill="#76a6a5"></path><path d="M0 -85.6C3.5 -82.4 7 -79.2 8.8 -72.5C10.6 -65.7 10.8 -55.5 13.5 -54.9C16.3 -54.3 21.5 -63.3 24.7 -65.1C27.9 -67 28.9 -61.5 30.7 -58.6C32.6 -55.7 35.3 -55.2 37 -53.6C38.7 -52 39.5 -49.3 44.3 -50C49.1 -50.8 58 -55.1 59.9 -53C61.7 -51 56.5 -42.5 53.5 -36.9C50.5 -31.4 49.8 -28.7 50.8 -26.6C51.7 -24.6 54.4 -23.2 57.3 -21.7C60.3 -20.3 63.5 -18.8 68.9 -17C74.3 -15.2 81.9 -13.2 85 -10.3C88.1 -7.4 86.9 -3.7 85.6 0L0 0Z" fill="#679c9c"></path></g></svg>