<svg width="32" height="32" viewBox="0 0 32 32" fill="none" xmlns="http://www.w3.org/2000/svg">
<path d="M4.75111 32H27.2489C29.8729 32 32 29.8729 32 27.2489L32 4.75111C32 2.12714 29.8729 0 27.2489 0L4.75111 0C2.12715 0 0 2.12714 0 4.75111V27.2489C0 29.8729 2.12715 32 4.75111 32Z" fill="#231F20"/>
<path d="M27.3037 12.4963L23.794 16.0044L18.8088 11.0193V4L27.3037 12.4963Z" fill="#E6E7E8"/>
<path d="M18.8089 4V28H13.8459V20.2963L7.17483 24.1482L4.69482 19.8504L11.363 15.9985L4.69482 12.1496L7.17483 7.85037L13.8459 11.7022V4H18.8089Z" fill="white"/>
<path d="M27.9986 5.33333C27.9986 4.59695 27.4016 4 26.6652 4C25.9289 4 25.3319 4.59695 25.3319 5.33333C25.3319 6.06971 25.9289 6.66667 26.6652 6.66667C27.4016 6.66667 27.9986 6.06971 27.9986 5.33333Z" fill="#679C9C"/>
</svg>
